<mxfile host="app.diagrams.net" agent="Mozilla/5.0 (Windows NT 10.0; Win64; x64) AppleWebKit/537.36 (KHTML, like Gecko) Chrome/135.0.0.0 Safari/537.36 Edg/135.0.0.0" version="26.2.9">
  <diagram name="PÃ¡gina-1" id="ZvY7RlKto1usyJ_V8Ote">
    <mxGraphModel dx="3121" dy="984" grid="1" gridSize="10" guides="1" tooltips="1" connect="1" arrows="1" fold="1" page="1" pageScale="1" pageWidth="827" pageHeight="1169" background="none" math="0" shadow="0">
      <root>
        <mxCell id="0" />
        <mxCell id="1" parent="0" />
        <mxCell id="pYvZ6EQq_U6aykrmB1s--96" value="S3" style="edgeStyle=none;rounded=0;orthogonalLoop=1;jettySize=auto;html=1;exitX=0.5;exitY=1;exitDx=0;exitDy=0;fontSize=15;" parent="1" source="pYvZ6EQq_U6aykrmB1s--72" edge="1">
          <mxGeometry x="1" y="10" relative="1" as="geometry">
            <mxPoint x="735" y="470" as="targetPoint" />
            <mxPoint x="-10" y="10" as="offset" />
          </mxGeometry>
        </mxCell>
        <mxCell id="pYvZ6EQq_U6aykrmB1s--118" value="A3" style="edgeStyle=none;rounded=0;orthogonalLoop=1;jettySize=auto;html=1;exitX=0.25;exitY=0;exitDx=0;exitDy=0;endArrow=none;startFill=1;startArrow=classic;fontSize=15;" parent="1" source="pYvZ6EQq_U6aykrmB1s--72" edge="1">
          <mxGeometry x="1" y="10" relative="1" as="geometry">
            <mxPoint x="723" y="350" as="targetPoint" />
            <mxPoint x="10" y="-9" as="offset" />
          </mxGeometry>
        </mxCell>
        <mxCell id="pYvZ6EQq_U6aykrmB1s--119" value="B3" style="edgeStyle=none;rounded=0;orthogonalLoop=1;jettySize=auto;html=1;exitX=0.75;exitY=0;exitDx=0;exitDy=0;endArrow=none;startFill=1;startArrow=classic;fontSize=15;" parent="1" source="pYvZ6EQq_U6aykrmB1s--72" edge="1">
          <mxGeometry x="1" y="10" relative="1" as="geometry">
            <mxPoint x="748" y="350" as="targetPoint" />
            <mxPoint x="10" y="-10" as="offset" />
          </mxGeometry>
        </mxCell>
        <mxCell id="pYvZ6EQq_U6aykrmB1s--72" value="Full&lt;div&gt;Adder&lt;/div&gt;" style="whiteSpace=wrap;html=1;aspect=fixed;fontSize=15;fillColor=#dae8fc;strokeColor=#6c8ebf;rounded=0;" parent="1" vertex="1">
          <mxGeometry x="710" y="380" width="50" height="50" as="geometry" />
        </mxCell>
        <mxCell id="pYvZ6EQq_U6aykrmB1s--87" style="edgeStyle=none;rounded=0;orthogonalLoop=1;jettySize=auto;html=1;exitX=0;exitY=0.5;exitDx=0;exitDy=0;entryX=1;entryY=0.5;entryDx=0;entryDy=0;endArrow=none;startFill=0;fontSize=15;" parent="1" source="pYvZ6EQq_U6aykrmB1s--73" target="pYvZ6EQq_U6aykrmB1s--72" edge="1">
          <mxGeometry relative="1" as="geometry" />
        </mxCell>
        <mxCell id="pYvZ6EQq_U6aykrmB1s--97" value="S2" style="edgeStyle=none;rounded=0;orthogonalLoop=1;jettySize=auto;html=1;exitX=0.5;exitY=1;exitDx=0;exitDy=0;fontSize=15;" parent="1" source="pYvZ6EQq_U6aykrmB1s--73" edge="1">
          <mxGeometry x="1" y="10" relative="1" as="geometry">
            <mxPoint x="825" y="470" as="targetPoint" />
            <mxPoint x="-10" y="10" as="offset" />
          </mxGeometry>
        </mxCell>
        <mxCell id="pYvZ6EQq_U6aykrmB1s--116" value="A2" style="edgeStyle=none;rounded=0;orthogonalLoop=1;jettySize=auto;html=1;exitX=0.25;exitY=0;exitDx=0;exitDy=0;endArrow=none;startFill=1;startArrow=classic;fontSize=15;" parent="1" source="pYvZ6EQq_U6aykrmB1s--73" edge="1">
          <mxGeometry x="1" y="10" relative="1" as="geometry">
            <mxPoint x="813" y="350" as="targetPoint" />
            <mxPoint x="10" y="-9" as="offset" />
          </mxGeometry>
        </mxCell>
        <mxCell id="pYvZ6EQq_U6aykrmB1s--117" value="B2" style="edgeStyle=none;rounded=0;orthogonalLoop=1;jettySize=auto;html=1;exitX=0.75;exitY=0;exitDx=0;exitDy=0;endArrow=none;startFill=1;startArrow=classic;fontSize=15;" parent="1" source="pYvZ6EQq_U6aykrmB1s--73" edge="1">
          <mxGeometry x="1" y="10" relative="1" as="geometry">
            <mxPoint x="838" y="350" as="targetPoint" />
            <mxPoint x="10" y="-9" as="offset" />
          </mxGeometry>
        </mxCell>
        <mxCell id="pYvZ6EQq_U6aykrmB1s--73" value="Full&lt;div&gt;Adder&lt;/div&gt;" style="whiteSpace=wrap;html=1;aspect=fixed;fontSize=15;fillColor=#dae8fc;strokeColor=#6c8ebf;rounded=0;" parent="1" vertex="1">
          <mxGeometry x="800" y="380" width="50" height="50" as="geometry" />
        </mxCell>
        <mxCell id="pYvZ6EQq_U6aykrmB1s--86" style="edgeStyle=none;rounded=0;orthogonalLoop=1;jettySize=auto;html=1;exitX=0;exitY=0.5;exitDx=0;exitDy=0;entryX=1;entryY=0.5;entryDx=0;entryDy=0;endArrow=none;startFill=0;fontSize=15;" parent="1" source="pYvZ6EQq_U6aykrmB1s--74" target="pYvZ6EQq_U6aykrmB1s--73" edge="1">
          <mxGeometry relative="1" as="geometry" />
        </mxCell>
        <mxCell id="pYvZ6EQq_U6aykrmB1s--98" value="S1" style="edgeStyle=none;rounded=0;orthogonalLoop=1;jettySize=auto;html=1;exitX=0.5;exitY=1;exitDx=0;exitDy=0;fontSize=15;" parent="1" source="pYvZ6EQq_U6aykrmB1s--74" edge="1">
          <mxGeometry x="1" y="10" relative="1" as="geometry">
            <mxPoint x="915" y="470" as="targetPoint" />
            <mxPoint x="-10" y="10" as="offset" />
          </mxGeometry>
        </mxCell>
        <mxCell id="pYvZ6EQq_U6aykrmB1s--114" value="A1" style="edgeStyle=none;rounded=0;orthogonalLoop=1;jettySize=auto;html=1;exitX=0.25;exitY=0;exitDx=0;exitDy=0;endArrow=none;startFill=1;startArrow=classic;fontSize=15;endSize=16;" parent="1" source="pYvZ6EQq_U6aykrmB1s--74" edge="1">
          <mxGeometry x="1" y="10" relative="1" as="geometry">
            <mxPoint x="903" y="350" as="targetPoint" />
            <mxPoint x="10" y="-9" as="offset" />
          </mxGeometry>
        </mxCell>
        <mxCell id="pYvZ6EQq_U6aykrmB1s--115" value="B1" style="edgeStyle=none;rounded=0;orthogonalLoop=1;jettySize=auto;html=1;exitX=0.75;exitY=0;exitDx=0;exitDy=0;endArrow=none;startFill=1;startArrow=classic;fontSize=15;endSize=16;" parent="1" source="pYvZ6EQq_U6aykrmB1s--74" edge="1">
          <mxGeometry x="1" y="-10" relative="1" as="geometry">
            <mxPoint x="928" y="350" as="targetPoint" />
            <mxPoint x="-8" y="-10" as="offset" />
          </mxGeometry>
        </mxCell>
        <mxCell id="pYvZ6EQq_U6aykrmB1s--74" value="Full&lt;div&gt;Adder&lt;/div&gt;" style="whiteSpace=wrap;html=1;aspect=fixed;fontSize=15;fillColor=#dae8fc;strokeColor=#6c8ebf;rounded=0;" parent="1" vertex="1">
          <mxGeometry x="890" y="380" width="50" height="50" as="geometry" />
        </mxCell>
        <mxCell id="pYvZ6EQq_U6aykrmB1s--85" style="edgeStyle=none;rounded=0;orthogonalLoop=1;jettySize=auto;html=1;exitX=0;exitY=0.5;exitDx=0;exitDy=0;entryX=1;entryY=0.5;entryDx=0;entryDy=0;endArrow=none;startFill=0;fontSize=15;" parent="1" source="pYvZ6EQq_U6aykrmB1s--75" target="pYvZ6EQq_U6aykrmB1s--74" edge="1">
          <mxGeometry relative="1" as="geometry" />
        </mxCell>
        <mxCell id="pYvZ6EQq_U6aykrmB1s--88" style="edgeStyle=none;rounded=0;orthogonalLoop=1;jettySize=auto;html=1;exitX=1;exitY=0.5;exitDx=0;exitDy=0;startArrow=block;startFill=1;endArrow=none;fontSize=15;" parent="1" source="pYvZ6EQq_U6aykrmB1s--75" edge="1">
          <mxGeometry relative="1" as="geometry">
            <mxPoint x="1060" y="405" as="targetPoint" />
          </mxGeometry>
        </mxCell>
        <mxCell id="pYvZ6EQq_U6aykrmB1s--103" value="Cin" style="edgeLabel;html=1;align=center;verticalAlign=middle;resizable=0;points=[];fontSize=15;rounded=0;" parent="pYvZ6EQq_U6aykrmB1s--88" vertex="1" connectable="0">
          <mxGeometry x="0.4" y="4" relative="1" as="geometry">
            <mxPoint y="-11" as="offset" />
          </mxGeometry>
        </mxCell>
        <mxCell id="pYvZ6EQq_U6aykrmB1s--99" value="S0" style="edgeStyle=none;rounded=0;orthogonalLoop=1;jettySize=auto;html=1;exitX=0.5;exitY=1;exitDx=0;exitDy=0;fontSize=15;" parent="1" source="pYvZ6EQq_U6aykrmB1s--75" edge="1">
          <mxGeometry x="1" y="10" relative="1" as="geometry">
            <mxPoint x="1005" y="470" as="targetPoint" />
            <mxPoint x="-10" y="10" as="offset" />
          </mxGeometry>
        </mxCell>
        <mxCell id="pYvZ6EQq_U6aykrmB1s--112" value="A0" style="edgeStyle=none;rounded=0;orthogonalLoop=1;jettySize=auto;html=1;exitX=0.25;exitY=0;exitDx=0;exitDy=0;fontSize=15;endArrow=none;startFill=1;startArrow=classic;endSize=6;startSize=6;jumpSize=6;jumpStyle=arc;" parent="1" source="pYvZ6EQq_U6aykrmB1s--75" edge="1">
          <mxGeometry x="1" y="10" relative="1" as="geometry">
            <mxPoint x="993" y="350" as="targetPoint" />
            <mxPoint x="10" y="-9" as="offset" />
          </mxGeometry>
        </mxCell>
        <mxCell id="pYvZ6EQq_U6aykrmB1s--113" value="B0" style="edgeStyle=none;rounded=0;orthogonalLoop=1;jettySize=auto;html=1;exitX=0.75;exitY=0;exitDx=0;exitDy=0;fontSize=15;endArrow=none;startFill=1;startArrow=classic;endSize=6;startSize=6;jumpSize=6;jumpStyle=arc;" parent="1" source="pYvZ6EQq_U6aykrmB1s--75" edge="1">
          <mxGeometry x="1" y="10" relative="1" as="geometry">
            <mxPoint x="1018" y="350" as="targetPoint" />
            <mxPoint x="10" y="-9" as="offset" />
          </mxGeometry>
        </mxCell>
        <mxCell id="pYvZ6EQq_U6aykrmB1s--75" value="Full&lt;div&gt;Adder&lt;/div&gt;" style="whiteSpace=wrap;html=1;aspect=fixed;fontSize=15;fillColor=#dae8fc;strokeColor=#6c8ebf;rounded=0;" parent="1" vertex="1">
          <mxGeometry x="980" y="380" width="50" height="50" as="geometry" />
        </mxCell>
        <mxCell id="E4-3knK5RSkZOcYOayk6-2" value="" style="verticalLabelPosition=bottom;shadow=0;dashed=0;align=center;html=1;verticalAlign=top;shape=mxgraph.electrical.logic_gates.logic_gate;operation=xor;rotation=90;rounded=0;fillColor=#dae8fc;strokeColor=#6c8ebf;" vertex="1" parent="1">
          <mxGeometry x="1069.34" y="389.15" width="70.44" height="50.63" as="geometry" />
        </mxCell>
        <mxCell id="E4-3knK5RSkZOcYOayk6-14" value="A3" style="endArrow=none;html=1;rounded=0;exitX=0.001;exitY=0.75;exitDx=0;exitDy=0;exitPerimeter=0;fontSize=16;" edge="1" parent="1" source="E4-3knK5RSkZOcYOayk6-2">
          <mxGeometry x="1" y="10" width="50" height="50" relative="1" as="geometry">
            <mxPoint x="1107" y="379" as="sourcePoint" />
            <mxPoint x="1092" y="350" as="targetPoint" />
            <mxPoint x="10" y="-10" as="offset" />
          </mxGeometry>
        </mxCell>
        <mxCell id="E4-3knK5RSkZOcYOayk6-15" value="B3" style="endArrow=none;html=1;rounded=0;exitX=0.004;exitY=0.251;exitDx=0;exitDy=0;exitPerimeter=0;fontSize=16;" edge="1" parent="1" source="E4-3knK5RSkZOcYOayk6-2">
          <mxGeometry x="1" y="-10" width="50" height="50" relative="1" as="geometry">
            <mxPoint x="910" y="390" as="sourcePoint" />
            <mxPoint x="1117" y="350" as="targetPoint" />
            <mxPoint x="-10" y="-10" as="offset" />
          </mxGeometry>
        </mxCell>
        <mxCell id="E4-3knK5RSkZOcYOayk6-27" value="" style="verticalLabelPosition=bottom;shadow=0;dashed=0;align=center;html=1;verticalAlign=top;shape=mxgraph.electrical.logic_gates.logic_gate;operation=xor;rotation=90;rounded=0;fillColor=#dae8fc;strokeColor=#6c8ebf;" vertex="1" parent="1">
          <mxGeometry x="1130" y="389.15" width="70.44" height="50.63" as="geometry" />
        </mxCell>
        <mxCell id="E4-3knK5RSkZOcYOayk6-28" value="A2" style="endArrow=none;html=1;rounded=0;exitX=0.001;exitY=0.75;exitDx=0;exitDy=0;exitPerimeter=0;fontSize=16;" edge="1" parent="1" source="E4-3knK5RSkZOcYOayk6-27">
          <mxGeometry x="1" y="10" width="50" height="50" relative="1" as="geometry">
            <mxPoint x="1167.66" y="379" as="sourcePoint" />
            <mxPoint x="1152.66" y="350" as="targetPoint" />
            <mxPoint x="10" y="-10" as="offset" />
          </mxGeometry>
        </mxCell>
        <mxCell id="E4-3knK5RSkZOcYOayk6-29" value="B2" style="endArrow=none;html=1;rounded=0;exitX=0.004;exitY=0.251;exitDx=0;exitDy=0;exitPerimeter=0;fontSize=16;" edge="1" parent="1" source="E4-3knK5RSkZOcYOayk6-27">
          <mxGeometry x="1" y="-10" width="50" height="50" relative="1" as="geometry">
            <mxPoint x="970.66" y="390" as="sourcePoint" />
            <mxPoint x="1177.66" y="350" as="targetPoint" />
            <mxPoint x="-10" y="-10" as="offset" />
          </mxGeometry>
        </mxCell>
        <mxCell id="E4-3knK5RSkZOcYOayk6-30" value="" style="verticalLabelPosition=bottom;shadow=0;dashed=0;align=center;html=1;verticalAlign=top;shape=mxgraph.electrical.logic_gates.logic_gate;operation=xor;rotation=90;rounded=0;fillColor=#dae8fc;strokeColor=#6c8ebf;" vertex="1" parent="1">
          <mxGeometry x="1190" y="389.15" width="70.44" height="50.63" as="geometry" />
        </mxCell>
        <mxCell id="E4-3knK5RSkZOcYOayk6-31" value="A1" style="endArrow=none;html=1;rounded=0;exitX=0.001;exitY=0.75;exitDx=0;exitDy=0;exitPerimeter=0;fontSize=16;" edge="1" parent="1" source="E4-3knK5RSkZOcYOayk6-30">
          <mxGeometry x="1" y="10" width="50" height="50" relative="1" as="geometry">
            <mxPoint x="1227.66" y="379" as="sourcePoint" />
            <mxPoint x="1212.66" y="350" as="targetPoint" />
            <mxPoint x="10" y="-10" as="offset" />
          </mxGeometry>
        </mxCell>
        <mxCell id="E4-3knK5RSkZOcYOayk6-32" value="B1" style="endArrow=none;html=1;rounded=0;exitX=0.004;exitY=0.251;exitDx=0;exitDy=0;exitPerimeter=0;fontSize=16;" edge="1" parent="1" source="E4-3knK5RSkZOcYOayk6-30">
          <mxGeometry x="1" y="-10" width="50" height="50" relative="1" as="geometry">
            <mxPoint x="1030.66" y="390" as="sourcePoint" />
            <mxPoint x="1237.66" y="350" as="targetPoint" />
            <mxPoint x="-10" y="-10" as="offset" />
          </mxGeometry>
        </mxCell>
        <mxCell id="E4-3knK5RSkZOcYOayk6-33" value="" style="verticalLabelPosition=bottom;shadow=0;dashed=0;align=center;html=1;verticalAlign=top;shape=mxgraph.electrical.logic_gates.logic_gate;operation=xor;rotation=90;rounded=0;fillColor=#dae8fc;strokeColor=#6c8ebf;" vertex="1" parent="1">
          <mxGeometry x="1250" y="389.15" width="70.44" height="50.63" as="geometry" />
        </mxCell>
        <mxCell id="E4-3knK5RSkZOcYOayk6-34" value="A0" style="endArrow=none;html=1;rounded=0;exitX=0.001;exitY=0.75;exitDx=0;exitDy=0;exitPerimeter=0;fontSize=16;" edge="1" parent="1" source="E4-3knK5RSkZOcYOayk6-33">
          <mxGeometry x="1" y="10" width="50" height="50" relative="1" as="geometry">
            <mxPoint x="1287.66" y="379" as="sourcePoint" />
            <mxPoint x="1272.66" y="350" as="targetPoint" />
            <mxPoint x="10" y="-10" as="offset" />
          </mxGeometry>
        </mxCell>
        <mxCell id="E4-3knK5RSkZOcYOayk6-35" value="B0" style="endArrow=none;html=1;rounded=0;exitX=0.004;exitY=0.251;exitDx=0;exitDy=0;exitPerimeter=0;fontSize=16;" edge="1" parent="1" source="E4-3knK5RSkZOcYOayk6-33">
          <mxGeometry x="1" y="-10" width="50" height="50" relative="1" as="geometry">
            <mxPoint x="1090.66" y="390" as="sourcePoint" />
            <mxPoint x="1297.66" y="350" as="targetPoint" />
            <mxPoint x="-10" y="-10" as="offset" />
          </mxGeometry>
        </mxCell>
        <mxCell id="E4-3knK5RSkZOcYOayk6-36" value="" style="verticalLabelPosition=bottom;shadow=0;dashed=0;align=center;html=1;verticalAlign=top;shape=mxgraph.electrical.logic_gates.logic_gate;operation=and;rotation=-180;fillColor=#dae8fc;strokeColor=#6c8ebf;" vertex="1" parent="1">
          <mxGeometry x="969" y="535" width="70" height="40" as="geometry" />
        </mxCell>
        <mxCell id="E4-3knK5RSkZOcYOayk6-49" value="" style="endArrow=none;html=1;rounded=0;entryX=0.999;entryY=0.5;entryDx=0;entryDy=0;entryPerimeter=0;exitX=0;exitY=0.75;exitDx=0;exitDy=0;exitPerimeter=0;" edge="1" parent="1" source="E4-3knK5RSkZOcYOayk6-36" target="E4-3knK5RSkZOcYOayk6-2">
          <mxGeometry width="50" height="50" relative="1" as="geometry">
            <mxPoint x="1030" y="520" as="sourcePoint" />
            <mxPoint x="1105.0156700000002" y="449.9667599999999" as="targetPoint" />
            <Array as="points">
              <mxPoint x="1105" y="545" />
            </Array>
          </mxGeometry>
        </mxCell>
        <mxCell id="E4-3knK5RSkZOcYOayk6-50" value="" style="endArrow=none;html=1;rounded=0;entryX=1;entryY=0.5;entryDx=0;entryDy=0;entryPerimeter=0;exitX=0;exitY=0.25;exitDx=0;exitDy=0;exitPerimeter=0;" edge="1" parent="1" source="E4-3knK5RSkZOcYOayk6-36" target="E4-3knK5RSkZOcYOayk6-27">
          <mxGeometry width="50" height="50" relative="1" as="geometry">
            <mxPoint x="1030" y="540" as="sourcePoint" />
            <mxPoint x="1120" y="410" as="targetPoint" />
            <Array as="points">
              <mxPoint x="1165" y="565" />
            </Array>
          </mxGeometry>
        </mxCell>
        <mxCell id="E4-3knK5RSkZOcYOayk6-51" value="" style="verticalLabelPosition=bottom;shadow=0;dashed=0;align=center;html=1;verticalAlign=top;shape=mxgraph.electrical.logic_gates.logic_gate;operation=and;rotation=-180;fillColor=#dae8fc;strokeColor=#6c8ebf;" vertex="1" parent="1">
          <mxGeometry x="969" y="595" width="70" height="40" as="geometry" />
        </mxCell>
        <mxCell id="E4-3knK5RSkZOcYOayk6-52" value="" style="endArrow=none;html=1;rounded=0;exitX=0;exitY=0.75;exitDx=0;exitDy=0;exitPerimeter=0;entryX=1;entryY=0.5;entryDx=0;entryDy=0;entryPerimeter=0;" edge="1" parent="1" source="E4-3knK5RSkZOcYOayk6-51" target="E4-3knK5RSkZOcYOayk6-30">
          <mxGeometry width="50" height="50" relative="1" as="geometry">
            <mxPoint x="1030" y="580" as="sourcePoint" />
            <mxPoint x="1230" y="450" as="targetPoint" />
            <Array as="points">
              <mxPoint x="1110" y="605" />
              <mxPoint x="1225" y="605" />
            </Array>
          </mxGeometry>
        </mxCell>
        <mxCell id="E4-3knK5RSkZOcYOayk6-53" value="" style="endArrow=none;html=1;rounded=0;exitX=0;exitY=0.25;exitDx=0;exitDy=0;exitPerimeter=0;entryX=1;entryY=0.5;entryDx=0;entryDy=0;entryPerimeter=0;" edge="1" parent="1" source="E4-3knK5RSkZOcYOayk6-51" target="E4-3knK5RSkZOcYOayk6-33">
          <mxGeometry width="50" height="50" relative="1" as="geometry">
            <mxPoint x="1030" y="600" as="sourcePoint" />
            <mxPoint x="1290" y="450" as="targetPoint" />
            <Array as="points">
              <mxPoint x="1165" y="625" />
              <mxPoint x="1285" y="625" />
            </Array>
          </mxGeometry>
        </mxCell>
        <mxCell id="E4-3knK5RSkZOcYOayk6-54" value="" style="verticalLabelPosition=bottom;shadow=0;dashed=0;align=center;html=1;verticalAlign=top;shape=mxgraph.electrical.logic_gates.logic_gate;operation=and;rotation=-180;fillColor=#dae8fc;strokeColor=#6c8ebf;" vertex="1" parent="1">
          <mxGeometry x="837" y="570" width="70" height="40" as="geometry" />
        </mxCell>
        <mxCell id="E4-3knK5RSkZOcYOayk6-55" value="" style="verticalLabelPosition=bottom;shadow=0;dashed=0;align=center;html=1;verticalAlign=top;shape=mxgraph.electrical.logic_gates.logic_gate;operation=and;rotation=-180;fillColor=#dae8fc;strokeColor=#6c8ebf;" vertex="1" parent="1">
          <mxGeometry x="720" y="560" width="70" height="40" as="geometry" />
        </mxCell>
        <mxCell id="E4-3knK5RSkZOcYOayk6-56" value="" style="endArrow=oval;html=1;rounded=0;endFill=1;exitX=0.001;exitY=0.737;exitDx=0;exitDy=0;exitPerimeter=0;" edge="1" parent="1" source="E4-3knK5RSkZOcYOayk6-55">
          <mxGeometry width="50" height="50" relative="1" as="geometry">
            <mxPoint x="800" y="565" as="sourcePoint" />
            <mxPoint x="1050" y="405" as="targetPoint" />
            <Array as="points">
              <mxPoint x="790" y="510" />
              <mxPoint x="1050" y="510" />
            </Array>
          </mxGeometry>
        </mxCell>
        <mxCell id="E4-3knK5RSkZOcYOayk6-57" value="" style="endArrow=none;html=1;rounded=0;exitX=0;exitY=0.25;exitDx=0;exitDy=0;exitPerimeter=0;entryX=0.957;entryY=0.5;entryDx=0;entryDy=0;entryPerimeter=0;" edge="1" parent="1" source="E4-3knK5RSkZOcYOayk6-55" target="E4-3knK5RSkZOcYOayk6-54">
          <mxGeometry width="50" height="50" relative="1" as="geometry">
            <mxPoint x="800" y="585" as="sourcePoint" />
            <mxPoint x="830" y="590" as="targetPoint" />
          </mxGeometry>
        </mxCell>
        <mxCell id="E4-3knK5RSkZOcYOayk6-58" value="" style="endArrow=none;html=1;rounded=0;exitX=0.002;exitY=0.25;exitDx=0;exitDy=0;exitPerimeter=0;entryX=0.986;entryY=0.5;entryDx=0;entryDy=0;entryPerimeter=0;" edge="1" parent="1" source="E4-3knK5RSkZOcYOayk6-54" target="E4-3knK5RSkZOcYOayk6-51">
          <mxGeometry width="50" height="50" relative="1" as="geometry">
            <mxPoint x="820" y="560" as="sourcePoint" />
            <mxPoint x="960" y="610" as="targetPoint" />
            <Array as="points">
              <mxPoint x="940" y="600" />
              <mxPoint x="940" y="615" />
            </Array>
          </mxGeometry>
        </mxCell>
        <mxCell id="E4-3knK5RSkZOcYOayk6-59" value="" style="endArrow=none;html=1;rounded=0;entryX=0.986;entryY=0.5;entryDx=0;entryDy=0;entryPerimeter=0;exitX=0;exitY=0.75;exitDx=0;exitDy=0;exitPerimeter=0;" edge="1" parent="1" source="E4-3knK5RSkZOcYOayk6-54" target="E4-3knK5RSkZOcYOayk6-36">
          <mxGeometry width="50" height="50" relative="1" as="geometry">
            <mxPoint x="910" y="580" as="sourcePoint" />
            <mxPoint x="960" y="550" as="targetPoint" />
            <Array as="points">
              <mxPoint x="940" y="580" />
              <mxPoint x="940" y="555" />
            </Array>
          </mxGeometry>
        </mxCell>
        <mxCell id="E4-3knK5RSkZOcYOayk6-168" style="edgeStyle=orthogonalEdgeStyle;rounded=0;orthogonalLoop=1;jettySize=auto;html=1;exitX=1;exitY=0.5;exitDx=0;exitDy=0;exitPerimeter=0;endArrow=oval;endFill=1;" edge="1" parent="1" source="E4-3knK5RSkZOcYOayk6-67">
          <mxGeometry relative="1" as="geometry">
            <mxPoint x="310" y="510" as="targetPoint" />
            <Array as="points">
              <mxPoint x="610" y="510" />
            </Array>
          </mxGeometry>
        </mxCell>
        <mxCell id="E4-3knK5RSkZOcYOayk6-67" value="" style="verticalLabelPosition=bottom;shadow=0;dashed=0;align=center;html=1;verticalAlign=top;shape=mxgraph.electrical.logic_gates.logic_gate;operation=or;rotation=-180;fillColor=#dae8fc;strokeColor=#6c8ebf;" vertex="1" parent="1">
          <mxGeometry x="610" y="545" width="70" height="40" as="geometry" />
        </mxCell>
        <mxCell id="E4-3knK5RSkZOcYOayk6-68" style="edgeStyle=orthogonalEdgeStyle;rounded=0;orthogonalLoop=1;jettySize=auto;html=1;exitX=0;exitY=0.5;exitDx=0;exitDy=0;entryX=0;entryY=0.75;entryDx=0;entryDy=0;entryPerimeter=0;endArrow=none;startFill=0;" edge="1" parent="1" source="pYvZ6EQq_U6aykrmB1s--72" target="E4-3knK5RSkZOcYOayk6-67">
          <mxGeometry relative="1" as="geometry">
            <Array as="points">
              <mxPoint x="700" y="405" />
              <mxPoint x="700" y="555" />
            </Array>
          </mxGeometry>
        </mxCell>
        <mxCell id="E4-3knK5RSkZOcYOayk6-69" style="edgeStyle=orthogonalEdgeStyle;rounded=0;orthogonalLoop=1;jettySize=auto;html=1;exitX=1;exitY=0.5;exitDx=0;exitDy=0;exitPerimeter=0;entryX=0;entryY=0.25;entryDx=0;entryDy=0;entryPerimeter=0;endArrow=none;startFill=0;" edge="1" parent="1" source="E4-3knK5RSkZOcYOayk6-55" target="E4-3knK5RSkZOcYOayk6-67">
          <mxGeometry relative="1" as="geometry" />
        </mxCell>
        <mxCell id="E4-3knK5RSkZOcYOayk6-119" value="S3" style="edgeStyle=none;rounded=0;orthogonalLoop=1;jettySize=auto;html=1;exitX=0.5;exitY=1;exitDx=0;exitDy=0;fontSize=15;" edge="1" parent="1" source="E4-3knK5RSkZOcYOayk6-122">
          <mxGeometry x="1" y="10" relative="1" as="geometry">
            <mxPoint x="-5" y="472" as="targetPoint" />
            <mxPoint x="-10" y="10" as="offset" />
          </mxGeometry>
        </mxCell>
        <mxCell id="E4-3knK5RSkZOcYOayk6-120" value="A7" style="edgeStyle=none;rounded=0;orthogonalLoop=1;jettySize=auto;html=1;exitX=0.25;exitY=0;exitDx=0;exitDy=0;endArrow=none;startFill=1;startArrow=classic;fontSize=15;" edge="1" parent="1" source="E4-3knK5RSkZOcYOayk6-122">
          <mxGeometry x="1" y="10" relative="1" as="geometry">
            <mxPoint x="-17" y="352" as="targetPoint" />
            <mxPoint x="10" y="-9" as="offset" />
          </mxGeometry>
        </mxCell>
        <mxCell id="E4-3knK5RSkZOcYOayk6-121" value="B7" style="edgeStyle=none;rounded=0;orthogonalLoop=1;jettySize=auto;html=1;exitX=0.75;exitY=0;exitDx=0;exitDy=0;endArrow=none;startFill=1;startArrow=classic;fontSize=15;" edge="1" parent="1" source="E4-3knK5RSkZOcYOayk6-122">
          <mxGeometry x="1" y="10" relative="1" as="geometry">
            <mxPoint x="8" y="352" as="targetPoint" />
            <mxPoint x="10" y="-10" as="offset" />
          </mxGeometry>
        </mxCell>
        <mxCell id="E4-3knK5RSkZOcYOayk6-122" value="Full&lt;div&gt;Adder&lt;/div&gt;" style="whiteSpace=wrap;html=1;aspect=fixed;fontSize=15;fillColor=#dae8fc;strokeColor=#6c8ebf;rounded=0;" vertex="1" parent="1">
          <mxGeometry x="-30" y="382" width="50" height="50" as="geometry" />
        </mxCell>
        <mxCell id="E4-3knK5RSkZOcYOayk6-123" style="edgeStyle=none;rounded=0;orthogonalLoop=1;jettySize=auto;html=1;exitX=0;exitY=0.5;exitDx=0;exitDy=0;entryX=1;entryY=0.5;entryDx=0;entryDy=0;endArrow=none;startFill=0;fontSize=15;" edge="1" parent="1" source="E4-3knK5RSkZOcYOayk6-127" target="E4-3knK5RSkZOcYOayk6-122">
          <mxGeometry relative="1" as="geometry" />
        </mxCell>
        <mxCell id="E4-3knK5RSkZOcYOayk6-124" value="S2" style="edgeStyle=none;rounded=0;orthogonalLoop=1;jettySize=auto;html=1;exitX=0.5;exitY=1;exitDx=0;exitDy=0;fontSize=15;" edge="1" parent="1" source="E4-3knK5RSkZOcYOayk6-127">
          <mxGeometry x="1" y="10" relative="1" as="geometry">
            <mxPoint x="85" y="472" as="targetPoint" />
            <mxPoint x="-10" y="10" as="offset" />
          </mxGeometry>
        </mxCell>
        <mxCell id="E4-3knK5RSkZOcYOayk6-125" value="A6" style="edgeStyle=none;rounded=0;orthogonalLoop=1;jettySize=auto;html=1;exitX=0.25;exitY=0;exitDx=0;exitDy=0;endArrow=none;startFill=1;startArrow=classic;fontSize=15;" edge="1" parent="1" source="E4-3knK5RSkZOcYOayk6-127">
          <mxGeometry x="1" y="10" relative="1" as="geometry">
            <mxPoint x="73" y="352" as="targetPoint" />
            <mxPoint x="10" y="-9" as="offset" />
          </mxGeometry>
        </mxCell>
        <mxCell id="E4-3knK5RSkZOcYOayk6-126" value="B6" style="edgeStyle=none;rounded=0;orthogonalLoop=1;jettySize=auto;html=1;exitX=0.75;exitY=0;exitDx=0;exitDy=0;endArrow=none;startFill=1;startArrow=classic;fontSize=15;" edge="1" parent="1" source="E4-3knK5RSkZOcYOayk6-127">
          <mxGeometry x="1" y="10" relative="1" as="geometry">
            <mxPoint x="98" y="352" as="targetPoint" />
            <mxPoint x="10" y="-9" as="offset" />
          </mxGeometry>
        </mxCell>
        <mxCell id="E4-3knK5RSkZOcYOayk6-127" value="Full&lt;div&gt;Adder&lt;/div&gt;" style="whiteSpace=wrap;html=1;aspect=fixed;fontSize=15;fillColor=#dae8fc;strokeColor=#6c8ebf;rounded=0;" vertex="1" parent="1">
          <mxGeometry x="60" y="382" width="50" height="50" as="geometry" />
        </mxCell>
        <mxCell id="E4-3knK5RSkZOcYOayk6-128" style="edgeStyle=none;rounded=0;orthogonalLoop=1;jettySize=auto;html=1;exitX=0;exitY=0.5;exitDx=0;exitDy=0;entryX=1;entryY=0.5;entryDx=0;entryDy=0;endArrow=none;startFill=0;fontSize=15;" edge="1" parent="1" source="E4-3knK5RSkZOcYOayk6-132" target="E4-3knK5RSkZOcYOayk6-127">
          <mxGeometry relative="1" as="geometry" />
        </mxCell>
        <mxCell id="E4-3knK5RSkZOcYOayk6-129" value="S1" style="edgeStyle=none;rounded=0;orthogonalLoop=1;jettySize=auto;html=1;exitX=0.5;exitY=1;exitDx=0;exitDy=0;fontSize=15;" edge="1" parent="1" source="E4-3knK5RSkZOcYOayk6-132">
          <mxGeometry x="1" y="10" relative="1" as="geometry">
            <mxPoint x="175" y="472" as="targetPoint" />
            <mxPoint x="-10" y="10" as="offset" />
          </mxGeometry>
        </mxCell>
        <mxCell id="E4-3knK5RSkZOcYOayk6-130" value="A5" style="edgeStyle=none;rounded=0;orthogonalLoop=1;jettySize=auto;html=1;exitX=0.25;exitY=0;exitDx=0;exitDy=0;endArrow=none;startFill=1;startArrow=classic;fontSize=15;endSize=16;" edge="1" parent="1" source="E4-3knK5RSkZOcYOayk6-132">
          <mxGeometry x="1" y="10" relative="1" as="geometry">
            <mxPoint x="163" y="352" as="targetPoint" />
            <mxPoint x="10" y="-9" as="offset" />
          </mxGeometry>
        </mxCell>
        <mxCell id="E4-3knK5RSkZOcYOayk6-131" value="B5" style="edgeStyle=none;rounded=0;orthogonalLoop=1;jettySize=auto;html=1;exitX=0.75;exitY=0;exitDx=0;exitDy=0;endArrow=none;startFill=1;startArrow=classic;fontSize=15;endSize=16;" edge="1" parent="1" source="E4-3knK5RSkZOcYOayk6-132">
          <mxGeometry x="1" y="-10" relative="1" as="geometry">
            <mxPoint x="188" y="352" as="targetPoint" />
            <mxPoint x="-8" y="-10" as="offset" />
          </mxGeometry>
        </mxCell>
        <mxCell id="E4-3knK5RSkZOcYOayk6-132" value="Full&lt;div&gt;Adder&lt;/div&gt;" style="whiteSpace=wrap;html=1;aspect=fixed;fontSize=15;fillColor=#dae8fc;strokeColor=#6c8ebf;rounded=0;" vertex="1" parent="1">
          <mxGeometry x="150" y="382" width="50" height="50" as="geometry" />
        </mxCell>
        <mxCell id="E4-3knK5RSkZOcYOayk6-133" style="edgeStyle=none;rounded=0;orthogonalLoop=1;jettySize=auto;html=1;exitX=0;exitY=0.5;exitDx=0;exitDy=0;entryX=1;entryY=0.5;entryDx=0;entryDy=0;endArrow=none;startFill=0;fontSize=15;" edge="1" parent="1" source="E4-3knK5RSkZOcYOayk6-139" target="E4-3knK5RSkZOcYOayk6-132">
          <mxGeometry relative="1" as="geometry" />
        </mxCell>
        <mxCell id="E4-3knK5RSkZOcYOayk6-136" value="S0" style="edgeStyle=none;rounded=0;orthogonalLoop=1;jettySize=auto;html=1;exitX=0.5;exitY=1;exitDx=0;exitDy=0;fontSize=15;" edge="1" parent="1" source="E4-3knK5RSkZOcYOayk6-139">
          <mxGeometry x="1" y="10" relative="1" as="geometry">
            <mxPoint x="265" y="472" as="targetPoint" />
            <mxPoint x="-10" y="10" as="offset" />
          </mxGeometry>
        </mxCell>
        <mxCell id="E4-3knK5RSkZOcYOayk6-137" value="A4" style="edgeStyle=none;rounded=0;orthogonalLoop=1;jettySize=auto;html=1;exitX=0.25;exitY=0;exitDx=0;exitDy=0;fontSize=15;endArrow=none;startFill=1;startArrow=classic;endSize=6;startSize=6;jumpSize=6;jumpStyle=arc;" edge="1" parent="1" source="E4-3knK5RSkZOcYOayk6-139">
          <mxGeometry x="1" y="10" relative="1" as="geometry">
            <mxPoint x="253" y="352" as="targetPoint" />
            <mxPoint x="10" y="-9" as="offset" />
          </mxGeometry>
        </mxCell>
        <mxCell id="E4-3knK5RSkZOcYOayk6-138" value="B4" style="edgeStyle=none;rounded=0;orthogonalLoop=1;jettySize=auto;html=1;exitX=0.75;exitY=0;exitDx=0;exitDy=0;fontSize=15;endArrow=none;startFill=1;startArrow=classic;endSize=6;startSize=6;jumpSize=6;jumpStyle=arc;" edge="1" parent="1" source="E4-3knK5RSkZOcYOayk6-139">
          <mxGeometry x="1" y="10" relative="1" as="geometry">
            <mxPoint x="278" y="352" as="targetPoint" />
            <mxPoint x="10" y="-9" as="offset" />
          </mxGeometry>
        </mxCell>
        <mxCell id="E4-3knK5RSkZOcYOayk6-139" value="Full&lt;div&gt;Adder&lt;/div&gt;" style="whiteSpace=wrap;html=1;aspect=fixed;fontSize=15;fillColor=#dae8fc;strokeColor=#6c8ebf;rounded=0;" vertex="1" parent="1">
          <mxGeometry x="240" y="382" width="50" height="50" as="geometry" />
        </mxCell>
        <mxCell id="E4-3knK5RSkZOcYOayk6-140" value="" style="verticalLabelPosition=bottom;shadow=0;dashed=0;align=center;html=1;verticalAlign=top;shape=mxgraph.electrical.logic_gates.logic_gate;operation=xor;rotation=90;rounded=0;fillColor=#dae8fc;strokeColor=#6c8ebf;" vertex="1" parent="1">
          <mxGeometry x="329.3399999999999" y="391.15" width="70.44" height="50.63" as="geometry" />
        </mxCell>
        <mxCell id="E4-3knK5RSkZOcYOayk6-141" value="A7" style="endArrow=none;html=1;rounded=0;exitX=0.001;exitY=0.75;exitDx=0;exitDy=0;exitPerimeter=0;fontSize=16;" edge="1" parent="1" source="E4-3knK5RSkZOcYOayk6-140">
          <mxGeometry x="1" y="10" width="50" height="50" relative="1" as="geometry">
            <mxPoint x="367" y="381" as="sourcePoint" />
            <mxPoint x="352" y="352" as="targetPoint" />
            <mxPoint x="10" y="-10" as="offset" />
          </mxGeometry>
        </mxCell>
        <mxCell id="E4-3knK5RSkZOcYOayk6-142" value="B7" style="endArrow=none;html=1;rounded=0;exitX=0.004;exitY=0.251;exitDx=0;exitDy=0;exitPerimeter=0;fontSize=16;" edge="1" parent="1" source="E4-3knK5RSkZOcYOayk6-140">
          <mxGeometry x="1" y="-10" width="50" height="50" relative="1" as="geometry">
            <mxPoint x="170" y="392" as="sourcePoint" />
            <mxPoint x="377" y="352" as="targetPoint" />
            <mxPoint x="-10" y="-10" as="offset" />
          </mxGeometry>
        </mxCell>
        <mxCell id="E4-3knK5RSkZOcYOayk6-143" value="" style="verticalLabelPosition=bottom;shadow=0;dashed=0;align=center;html=1;verticalAlign=top;shape=mxgraph.electrical.logic_gates.logic_gate;operation=xor;rotation=90;rounded=0;fillColor=#dae8fc;strokeColor=#6c8ebf;" vertex="1" parent="1">
          <mxGeometry x="390" y="391.15" width="70.44" height="50.63" as="geometry" />
        </mxCell>
        <mxCell id="E4-3knK5RSkZOcYOayk6-144" value="A6" style="endArrow=none;html=1;rounded=0;exitX=0.001;exitY=0.75;exitDx=0;exitDy=0;exitPerimeter=0;fontSize=16;" edge="1" parent="1" source="E4-3knK5RSkZOcYOayk6-143">
          <mxGeometry x="1" y="10" width="50" height="50" relative="1" as="geometry">
            <mxPoint x="427.6600000000001" y="381" as="sourcePoint" />
            <mxPoint x="412.6600000000001" y="352" as="targetPoint" />
            <mxPoint x="10" y="-10" as="offset" />
          </mxGeometry>
        </mxCell>
        <mxCell id="E4-3knK5RSkZOcYOayk6-145" value="B6" style="endArrow=none;html=1;rounded=0;exitX=0.004;exitY=0.251;exitDx=0;exitDy=0;exitPerimeter=0;fontSize=16;" edge="1" parent="1" source="E4-3knK5RSkZOcYOayk6-143">
          <mxGeometry x="1" y="-10" width="50" height="50" relative="1" as="geometry">
            <mxPoint x="230.65999999999997" y="392" as="sourcePoint" />
            <mxPoint x="437.6600000000001" y="352" as="targetPoint" />
            <mxPoint x="-10" y="-10" as="offset" />
          </mxGeometry>
        </mxCell>
        <mxCell id="E4-3knK5RSkZOcYOayk6-146" value="" style="verticalLabelPosition=bottom;shadow=0;dashed=0;align=center;html=1;verticalAlign=top;shape=mxgraph.electrical.logic_gates.logic_gate;operation=xor;rotation=90;rounded=0;fillColor=#dae8fc;strokeColor=#6c8ebf;" vertex="1" parent="1">
          <mxGeometry x="450" y="391.15" width="70.44" height="50.63" as="geometry" />
        </mxCell>
        <mxCell id="E4-3knK5RSkZOcYOayk6-147" value="A5" style="endArrow=none;html=1;rounded=0;exitX=0.001;exitY=0.75;exitDx=0;exitDy=0;exitPerimeter=0;fontSize=16;" edge="1" parent="1" source="E4-3knK5RSkZOcYOayk6-146">
          <mxGeometry x="1" y="10" width="50" height="50" relative="1" as="geometry">
            <mxPoint x="487.6600000000001" y="381" as="sourcePoint" />
            <mxPoint x="472.6600000000001" y="352" as="targetPoint" />
            <mxPoint x="10" y="-10" as="offset" />
          </mxGeometry>
        </mxCell>
        <mxCell id="E4-3knK5RSkZOcYOayk6-148" value="B5" style="endArrow=none;html=1;rounded=0;exitX=0.004;exitY=0.251;exitDx=0;exitDy=0;exitPerimeter=0;fontSize=16;" edge="1" parent="1" source="E4-3knK5RSkZOcYOayk6-146">
          <mxGeometry x="1" y="-10" width="50" height="50" relative="1" as="geometry">
            <mxPoint x="290.6600000000001" y="392" as="sourcePoint" />
            <mxPoint x="497.6600000000001" y="352" as="targetPoint" />
            <mxPoint x="-10" y="-10" as="offset" />
          </mxGeometry>
        </mxCell>
        <mxCell id="E4-3knK5RSkZOcYOayk6-149" value="" style="verticalLabelPosition=bottom;shadow=0;dashed=0;align=center;html=1;verticalAlign=top;shape=mxgraph.electrical.logic_gates.logic_gate;operation=xor;rotation=90;rounded=0;fillColor=#dae8fc;strokeColor=#6c8ebf;" vertex="1" parent="1">
          <mxGeometry x="510" y="391.15" width="70.44" height="50.63" as="geometry" />
        </mxCell>
        <mxCell id="E4-3knK5RSkZOcYOayk6-150" value="A4" style="endArrow=none;html=1;rounded=0;exitX=0.001;exitY=0.75;exitDx=0;exitDy=0;exitPerimeter=0;fontSize=16;" edge="1" parent="1" source="E4-3knK5RSkZOcYOayk6-149">
          <mxGeometry x="1" y="10" width="50" height="50" relative="1" as="geometry">
            <mxPoint x="547.6600000000001" y="381" as="sourcePoint" />
            <mxPoint x="532.6600000000001" y="352" as="targetPoint" />
            <mxPoint x="10" y="-10" as="offset" />
          </mxGeometry>
        </mxCell>
        <mxCell id="E4-3knK5RSkZOcYOayk6-151" value="B4" style="endArrow=none;html=1;rounded=0;exitX=0.004;exitY=0.251;exitDx=0;exitDy=0;exitPerimeter=0;fontSize=16;" edge="1" parent="1" source="E4-3knK5RSkZOcYOayk6-149">
          <mxGeometry x="1" y="-10" width="50" height="50" relative="1" as="geometry">
            <mxPoint x="350.6600000000001" y="392" as="sourcePoint" />
            <mxPoint x="557.6600000000001" y="352" as="targetPoint" />
            <mxPoint x="-10" y="-10" as="offset" />
          </mxGeometry>
        </mxCell>
        <mxCell id="E4-3knK5RSkZOcYOayk6-152" value="" style="verticalLabelPosition=bottom;shadow=0;dashed=0;align=center;html=1;verticalAlign=top;shape=mxgraph.electrical.logic_gates.logic_gate;operation=and;rotation=-180;fillColor=#dae8fc;strokeColor=#6c8ebf;" vertex="1" parent="1">
          <mxGeometry x="229" y="537" width="70" height="40" as="geometry" />
        </mxCell>
        <mxCell id="E4-3knK5RSkZOcYOayk6-153" value="" style="endArrow=none;html=1;rounded=0;entryX=0.999;entryY=0.5;entryDx=0;entryDy=0;entryPerimeter=0;exitX=0;exitY=0.75;exitDx=0;exitDy=0;exitPerimeter=0;" edge="1" parent="1" source="E4-3knK5RSkZOcYOayk6-152" target="E4-3knK5RSkZOcYOayk6-140">
          <mxGeometry width="50" height="50" relative="1" as="geometry">
            <mxPoint x="290" y="522" as="sourcePoint" />
            <mxPoint x="365.0156700000002" y="451.9667599999999" as="targetPoint" />
            <Array as="points">
              <mxPoint x="365" y="547" />
            </Array>
          </mxGeometry>
        </mxCell>
        <mxCell id="E4-3knK5RSkZOcYOayk6-154" value="" style="endArrow=none;html=1;rounded=0;entryX=1;entryY=0.5;entryDx=0;entryDy=0;entryPerimeter=0;exitX=0;exitY=0.25;exitDx=0;exitDy=0;exitPerimeter=0;" edge="1" parent="1" source="E4-3knK5RSkZOcYOayk6-152" target="E4-3knK5RSkZOcYOayk6-143">
          <mxGeometry width="50" height="50" relative="1" as="geometry">
            <mxPoint x="290" y="542" as="sourcePoint" />
            <mxPoint x="380" y="412" as="targetPoint" />
            <Array as="points">
              <mxPoint x="425" y="567" />
            </Array>
          </mxGeometry>
        </mxCell>
        <mxCell id="E4-3knK5RSkZOcYOayk6-155" value="" style="verticalLabelPosition=bottom;shadow=0;dashed=0;align=center;html=1;verticalAlign=top;shape=mxgraph.electrical.logic_gates.logic_gate;operation=and;rotation=-180;fillColor=#dae8fc;strokeColor=#6c8ebf;" vertex="1" parent="1">
          <mxGeometry x="229" y="597" width="70" height="40" as="geometry" />
        </mxCell>
        <mxCell id="E4-3knK5RSkZOcYOayk6-156" value="" style="endArrow=none;html=1;rounded=0;exitX=0;exitY=0.75;exitDx=0;exitDy=0;exitPerimeter=0;entryX=1;entryY=0.5;entryDx=0;entryDy=0;entryPerimeter=0;" edge="1" parent="1" source="E4-3knK5RSkZOcYOayk6-155" target="E4-3knK5RSkZOcYOayk6-146">
          <mxGeometry width="50" height="50" relative="1" as="geometry">
            <mxPoint x="290" y="582" as="sourcePoint" />
            <mxPoint x="490" y="452" as="targetPoint" />
            <Array as="points">
              <mxPoint x="370" y="607" />
              <mxPoint x="485" y="607" />
            </Array>
          </mxGeometry>
        </mxCell>
        <mxCell id="E4-3knK5RSkZOcYOayk6-157" value="" style="endArrow=none;html=1;rounded=0;exitX=0;exitY=0.25;exitDx=0;exitDy=0;exitPerimeter=0;entryX=1;entryY=0.5;entryDx=0;entryDy=0;entryPerimeter=0;" edge="1" parent="1" source="E4-3knK5RSkZOcYOayk6-155" target="E4-3knK5RSkZOcYOayk6-149">
          <mxGeometry width="50" height="50" relative="1" as="geometry">
            <mxPoint x="290" y="602" as="sourcePoint" />
            <mxPoint x="550" y="452" as="targetPoint" />
            <Array as="points">
              <mxPoint x="425" y="627" />
              <mxPoint x="545" y="627" />
            </Array>
          </mxGeometry>
        </mxCell>
        <mxCell id="E4-3knK5RSkZOcYOayk6-158" value="" style="verticalLabelPosition=bottom;shadow=0;dashed=0;align=center;html=1;verticalAlign=top;shape=mxgraph.electrical.logic_gates.logic_gate;operation=and;rotation=-180;fillColor=#dae8fc;strokeColor=#6c8ebf;" vertex="1" parent="1">
          <mxGeometry x="97" y="572" width="70" height="40" as="geometry" />
        </mxCell>
        <mxCell id="E4-3knK5RSkZOcYOayk6-159" value="" style="verticalLabelPosition=bottom;shadow=0;dashed=0;align=center;html=1;verticalAlign=top;shape=mxgraph.electrical.logic_gates.logic_gate;operation=and;rotation=-180;fillColor=#dae8fc;strokeColor=#6c8ebf;" vertex="1" parent="1">
          <mxGeometry x="-20" y="562" width="70" height="40" as="geometry" />
        </mxCell>
        <mxCell id="E4-3knK5RSkZOcYOayk6-160" value="" style="endArrow=none;html=1;rounded=0;endFill=1;exitX=0.001;exitY=0.737;exitDx=0;exitDy=0;exitPerimeter=0;startFill=0;entryX=1;entryY=0.5;entryDx=0;entryDy=0;" edge="1" parent="1">
          <mxGeometry width="50" height="50" relative="1" as="geometry">
            <mxPoint x="49.93000000000029" y="572.5200000000001" as="sourcePoint" />
            <mxPoint x="290" y="406.9999999999999" as="targetPoint" />
            <Array as="points">
              <mxPoint x="50" y="510" />
              <mxPoint x="180" y="510" />
              <mxPoint x="310" y="510" />
              <mxPoint x="310" y="407" />
            </Array>
          </mxGeometry>
        </mxCell>
        <mxCell id="E4-3knK5RSkZOcYOayk6-161" value="" style="endArrow=none;html=1;rounded=0;exitX=0;exitY=0.25;exitDx=0;exitDy=0;exitPerimeter=0;entryX=0.957;entryY=0.5;entryDx=0;entryDy=0;entryPerimeter=0;" edge="1" parent="1" source="E4-3knK5RSkZOcYOayk6-159" target="E4-3knK5RSkZOcYOayk6-158">
          <mxGeometry width="50" height="50" relative="1" as="geometry">
            <mxPoint x="60" y="587" as="sourcePoint" />
            <mxPoint x="90" y="592" as="targetPoint" />
          </mxGeometry>
        </mxCell>
        <mxCell id="E4-3knK5RSkZOcYOayk6-162" value="" style="endArrow=none;html=1;rounded=0;exitX=0.002;exitY=0.25;exitDx=0;exitDy=0;exitPerimeter=0;entryX=0.986;entryY=0.5;entryDx=0;entryDy=0;entryPerimeter=0;" edge="1" parent="1" source="E4-3knK5RSkZOcYOayk6-158" target="E4-3knK5RSkZOcYOayk6-155">
          <mxGeometry width="50" height="50" relative="1" as="geometry">
            <mxPoint x="80" y="562" as="sourcePoint" />
            <mxPoint x="220" y="612" as="targetPoint" />
            <Array as="points">
              <mxPoint x="200" y="602" />
              <mxPoint x="200" y="617" />
            </Array>
          </mxGeometry>
        </mxCell>
        <mxCell id="E4-3knK5RSkZOcYOayk6-163" value="" style="endArrow=none;html=1;rounded=0;entryX=0.986;entryY=0.5;entryDx=0;entryDy=0;entryPerimeter=0;exitX=0;exitY=0.75;exitDx=0;exitDy=0;exitPerimeter=0;" edge="1" parent="1" source="E4-3knK5RSkZOcYOayk6-158" target="E4-3knK5RSkZOcYOayk6-152">
          <mxGeometry width="50" height="50" relative="1" as="geometry">
            <mxPoint x="170" y="582" as="sourcePoint" />
            <mxPoint x="220" y="552" as="targetPoint" />
            <Array as="points">
              <mxPoint x="200" y="582" />
              <mxPoint x="200" y="557" />
            </Array>
          </mxGeometry>
        </mxCell>
        <mxCell id="E4-3knK5RSkZOcYOayk6-164" value="&lt;font style=&quot;font-size: 15px;&quot;&gt;Cout&lt;/font&gt;" style="edgeStyle=orthogonalEdgeStyle;rounded=0;orthogonalLoop=1;jettySize=auto;html=1;exitX=1;exitY=0.5;exitDx=0;exitDy=0;exitPerimeter=0;" edge="1" parent="1" source="E4-3knK5RSkZOcYOayk6-165">
          <mxGeometry x="-0.3333" y="-15" relative="1" as="geometry">
            <mxPoint x="-160" y="567" as="targetPoint" />
            <mxPoint as="offset" />
          </mxGeometry>
        </mxCell>
        <mxCell id="E4-3knK5RSkZOcYOayk6-165" value="" style="verticalLabelPosition=bottom;shadow=0;dashed=0;align=center;html=1;verticalAlign=top;shape=mxgraph.electrical.logic_gates.logic_gate;operation=or;rotation=-180;fillColor=#dae8fc;strokeColor=#6c8ebf;" vertex="1" parent="1">
          <mxGeometry x="-130" y="547" width="70" height="40" as="geometry" />
        </mxCell>
        <mxCell id="E4-3knK5RSkZOcYOayk6-166" style="edgeStyle=orthogonalEdgeStyle;rounded=0;orthogonalLoop=1;jettySize=auto;html=1;exitX=0;exitY=0.5;exitDx=0;exitDy=0;entryX=0;entryY=0.75;entryDx=0;entryDy=0;entryPerimeter=0;endArrow=none;startFill=0;" edge="1" parent="1" source="E4-3knK5RSkZOcYOayk6-122" target="E4-3knK5RSkZOcYOayk6-165">
          <mxGeometry relative="1" as="geometry">
            <Array as="points">
              <mxPoint x="-40" y="407" />
              <mxPoint x="-40" y="557" />
            </Array>
          </mxGeometry>
        </mxCell>
        <mxCell id="E4-3knK5RSkZOcYOayk6-167" style="edgeStyle=orthogonalEdgeStyle;rounded=0;orthogonalLoop=1;jettySize=auto;html=1;exitX=1;exitY=0.5;exitDx=0;exitDy=0;exitPerimeter=0;entryX=0;entryY=0.25;entryDx=0;entryDy=0;entryPerimeter=0;endArrow=none;startFill=0;" edge="1" parent="1" source="E4-3knK5RSkZOcYOayk6-159" target="E4-3knK5RSkZOcYOayk6-165">
          <mxGeometry relative="1" as="geometry" />
        </mxCell>
      </root>
    </mxGraphModel>
  </diagram>
</mxfile>
